<svg xmlns="http://www.w3.org/2000/svg" viewBox="0 0 400 480" fill="none">
  <title>Pulse — The Energizer</title>
  <path d="M70 90 l18 42 40-10-30 48 48-6-78 96 12-58-40 8 22-80-32-8z" fill="#F5B83D"/>
  <path d="M330 70 l-10 46 38 8-48 42 36 10-86 78 28-54-34 2 40-86-28-6z" fill="#FFE08A"/>
  <ellipse cx="200" cy="438" rx="100" ry="16" fill="#000" opacity=".18"/>
  <path d="M118 438 C118 292 128 248 200 246 C272 248 282 292 282 438 Z" fill="#FF7A45"/>
  <path d="M148 320 h104 v16 c0 24-22 38-52 38s-52-14-52-38z" fill="#E45E32"/>
  <circle cx="200" cy="198" r="80" fill="#C68642"/>
  <path d="M122 200 C118 112 164 78 200 80 C250 82 292 118 280 202 C300 140 250 70 200 72 C148 74 108 122 122 200Z" fill="#2C1810"/>
  <path d="M250 96 C278 108 296 150 286 200" fill="none" stroke="#2C1810" stroke-width="22" stroke-linecap="round"/>
  <ellipse cx="176" cy="198" rx="8" ry="10" fill="#1A120C"/>
  <ellipse cx="226" cy="198" rx="8" ry="10" fill="#1A120C"/>
  <ellipse cx="179" cy="195" rx="2.4" ry="2.6" fill="#fff"/>
  <ellipse cx="229" cy="195" rx="2.4" ry="2.6" fill="#fff"/>
  <path d="M176 228 Q200 252 226 228" fill="none" stroke="#8A3A2A" stroke-width="4" stroke-linecap="round"/>
  <circle cx="168" cy="216" r="8" fill="#E0896A" opacity=".5"/>
  <circle cx="234" cy="216" r="8" fill="#E0896A" opacity=".5"/>
  <path d="M96 300 C70 240 110 200 148 230" fill="none" stroke="#C68642" stroke-width="18" stroke-linecap="round"/>
  <path d="M304 300 C330 240 290 200 252 230" fill="none" stroke="#C68642" stroke-width="18" stroke-linecap="round"/>
</svg>
