<svg xmlns="http://www.w3.org/2000/svg" viewBox="0 0 400 480" fill="none">
  <title>Rise — The Encourager</title>
  <path d="M140 92 l20-40 20 28 20-48 20 48 20-28 20 40-60 18z" fill="#F5B83D" stroke="#C79212" stroke-width="3"/>
  <circle cx="160" cy="70" r="6" fill="#fff"/>
  <circle cx="200" cy="48" r="7" fill="#fff"/>
  <circle cx="240" cy="70" r="6" fill="#fff"/>
  <ellipse cx="200" cy="438" rx="96" ry="16" fill="#000" opacity=".18"/>
  <path d="M124 438 C124 298 136 252 200 250 C264 252 276 298 276 438 Z" fill="#7B5EA7"/>
  <path d="M152 326 h96 v14 c0 22-20 34-48 34s-48-12-48-34z" fill="#634A8C"/>
  <circle cx="200" cy="196" r="76" fill="#D4A574"/>
  <path d="M128 200 C122 118 160 96 200 94 C248 96 280 126 272 200 C264 150 236 128 200 126 C164 128 138 152 128 200Z" fill="#1A1A1A"/>
  <path d="M118 210 C112 170 132 140 156 138 C140 168 132 196 136 228Z" fill="#111"/>
  <path d="M282 210 C288 170 268 140 244 138 C260 168 268 196 264 228Z" fill="#111"/>
  <ellipse cx="176" cy="196" rx="8" ry="10" fill="#2A241C"/>
  <ellipse cx="224" cy="196" rx="8" ry="10" fill="#2A241C"/>
  <ellipse cx="179" cy="193" rx="2.4" ry="2.6" fill="#fff"/>
  <ellipse cx="227" cy="193" rx="2.4" ry="2.6" fill="#fff"/>
  <path d="M178 228 Q200 246 224 228" fill="none" stroke="#B45A4A" stroke-width="3.6" stroke-linecap="round"/>
  <circle cx="168" cy="214" r="8" fill="#E09A80" opacity=".45"/>
  <circle cx="232" cy="214" r="8" fill="#E09A80" opacity=".45"/>
  <path d="M96 310 C72 250 118 214 150 240" fill="none" stroke="#D4A574" stroke-width="16" stroke-linecap="round"/>
  <path d="M304 310 C328 250 282 214 250 240" fill="none" stroke="#D4A574" stroke-width="16" stroke-linecap="round"/>
</svg>
